<?xml version="1.0" encoding="UTF-8" standalone="no"?>
<!DOCTYPE svg PUBLIC "-//W3C//DTD SVG 1.1//EN"
 "http://www.w3.org/Graphics/SVG/1.1/DTD/svg11.dtd">
<!-- Generated by graphviz version 2.38.0 (20140413.2041)
 -->
<!-- Title: DAG Pages: 1 -->
<svg width="152pt" height="116pt"
 viewBox="0.00 0.00 152.00 116.00" xmlns="http://www.w3.org/2000/svg" xmlns:xlink="http://www.w3.org/1999/xlink">
<g id="graph0" class="graph" transform="scale(1 1) rotate(0) translate(4 112)">
<title>DAG</title>
<polygon fill="white" stroke="none" points="-4,4 -4,-112 148,-112 148,4 -4,4"/>
<!-- 1 -->
<g id="node1" class="node"><title>1</title>
<ellipse fill="none" stroke="black" cx="18" cy="-90" rx="18" ry="18"/>
<text text-anchor="middle" x="18" y="-86.3" font-family="Times,serif" font-size="14.00">X₁</text>
</g>
<!-- 2 -->
<g id="node2" class="node"><title>2</title>
<ellipse fill="none" stroke="black" cx="72" cy="-90" rx="18" ry="18"/>
<text text-anchor="middle" x="72" y="-86.3" font-family="Times,serif" font-size="14.00">X₂</text>
</g>
<!-- 1&#45;&gt;2 -->
<g id="edge1" class="edge"><title>1&#45;&gt;2</title>
<path fill="none" stroke="black" d="M36.1406,-90C38.6226,-90 41.1046,-90 43.5865,-90"/>
<polygon fill="black" stroke="black" points="43.7902,-93.5001 53.7902,-90 43.7901,-86.5001 43.7902,-93.5001"/>
</g>
<!-- 4 -->
<g id="node4" class="node"><title>4</title>
<polygon fill="none" stroke="black" points="90,-36 54,-36 54,-0 90,-0 90,-36"/>
<text text-anchor="middle" x="72" y="-14.3" font-family="Times,serif" font-size="14.00">X₄</text>
</g>
<!-- 1&#45;&gt;4 -->
<g id="edge3" class="edge"><title>1&#45;&gt;4</title>
<path fill="none" stroke="black" d="M28.6687,-75.1703C35.5081,-66.3043 44.587,-54.5354 52.667,-44.0613"/>
<polygon fill="black" stroke="black" points="55.5342,-46.0747 58.871,-36.019 49.9917,-41.7991 55.5342,-46.0747"/>
</g>
<!-- 3 -->
<g id="node3" class="node"><title>3</title>
<ellipse fill="none" stroke="black" cx="126" cy="-90" rx="18" ry="18"/>
<text text-anchor="middle" x="126" y="-86.3" font-family="Times,serif" font-size="14.00">X₃</text>
</g>
<!-- 2&#45;&gt;3 -->
<g id="edge2" class="edge"><title>2&#45;&gt;3</title>
<path fill="none" stroke="black" d="M90.1406,-90C92.6226,-90 95.1046,-90 97.5865,-90"/>
<polygon fill="black" stroke="black" points="97.7902,-93.5001 107.79,-90 97.7901,-86.5001 97.7902,-93.5001"/>
</g>
<!-- 3&#45;&gt;4 -->
<g id="edge4" class="edge"><title>3&#45;&gt;4</title>
<path fill="none" stroke="black" d="M115.331,-75.1703C108.492,-66.3043 99.413,-54.5354 91.333,-44.0613"/>
<polygon fill="black" stroke="black" points="94.0083,-41.7991 85.129,-36.019 88.4658,-46.0747 94.0083,-41.7991"/>
</g>
</g>
</svg>
