<?xml version="1.0" encoding="UTF-8" standalone="no"?>
<!DOCTYPE svg PUBLIC "-//W3C//DTD SVG 1.1//EN"
 "http://www.w3.org/Graphics/SVG/1.1/DTD/svg11.dtd">
<!-- Generated by graphviz version 2.38.0 (20140413.2041)
 -->
<!-- Title: DAG Pages: 1 -->
<svg width="98pt" height="116pt"
 viewBox="0.00 0.00 98.00 116.00" xmlns="http://www.w3.org/2000/svg" xmlns:xlink="http://www.w3.org/1999/xlink">
<g id="graph0" class="graph" transform="scale(1 1) rotate(0) translate(4 112)">
<title>DAG</title>
<polygon fill="white" stroke="none" points="-4,4 -4,-112 94,-112 94,4 -4,4"/>
<!-- 1 -->
<g id="node1" class="node"><title>1</title>
<ellipse fill="none" stroke="black" cx="18" cy="-90" rx="18" ry="18"/>
<text text-anchor="middle" x="18" y="-86.3" font-family="Times,serif" font-size="14.00">X₁</text>
</g>
<!-- 2 -->
<g id="node2" class="node"><title>2</title>
<ellipse fill="none" stroke="black" cx="18" cy="-18" rx="18" ry="18"/>
<text text-anchor="middle" x="18" y="-14.3" font-family="Times,serif" font-size="14.00">X₂</text>
</g>
<!-- 1&#45;&gt;2 -->
<g id="edge1" class="edge"><title>1&#45;&gt;2</title>
<path fill="none" stroke="black" d="M18,-71.6966C18,-63.9827 18,-54.7125 18,-46.1124"/>
<polygon fill="black" stroke="black" points="21.5001,-46.1043 18,-36.1043 14.5001,-46.1044 21.5001,-46.1043"/>
</g>
<!-- 3 -->
<g id="node3" class="node"><title>3</title>
<ellipse fill="none" stroke="black" cx="72" cy="-18" rx="18" ry="18"/>
<text text-anchor="middle" x="72" y="-14.3" font-family="Times,serif" font-size="14.00">X₃</text>
</g>
<!-- 1&#45;&gt;3 -->
<g id="edge2" class="edge"><title>1&#45;&gt;3</title>
<path fill="none" stroke="black" d="M28.6687,-75.1703C36.2126,-65.391 46.4812,-52.0799 55.1287,-40.8702"/>
<polygon fill="black" stroke="black" points="58.0167,-42.8567 61.3535,-32.801 52.4742,-38.581 58.0167,-42.8567"/>
</g>
<!-- 4 -->
<g id="node4" class="node"><title>4</title>
<ellipse fill="none" stroke="black" cx="72" cy="-90" rx="18" ry="18"/>
<text text-anchor="middle" x="72" y="-86.3" font-family="Times,serif" font-size="14.00">X₄</text>
</g>
<!-- 1&#45;&gt;4 -->
<g id="edge4" class="edge"><title>1&#45;&gt;4</title>
<path fill="none" stroke="black" d="M36.1406,-90C38.6226,-90 41.1046,-90 43.5865,-90"/>
<polygon fill="black" stroke="black" points="43.7902,-93.5001 53.7902,-90 43.7901,-86.5001 43.7902,-93.5001"/>
</g>
<!-- 2&#45;&gt;3 -->
<g id="edge3" class="edge"><title>2&#45;&gt;3</title>
<path fill="none" stroke="black" d="M36.1406,-18C38.6226,-18 41.1046,-18 43.5865,-18"/>
<polygon fill="black" stroke="black" points="43.7902,-21.5001 53.7902,-18 43.7901,-14.5001 43.7902,-21.5001"/>
</g>
<!-- 3&#45;&gt;4 -->
<g id="edge5" class="edge"><title>3&#45;&gt;4</title>
<path fill="none" stroke="black" d="M72,-36.1043C72,-43.7913 72,-53.0537 72,-61.6651"/>
<polygon fill="black" stroke="black" points="68.5001,-61.6966 72,-71.6966 75.5001,-61.6967 68.5001,-61.6966"/>
</g>
</g>
</svg>
