<?xml version="1.0" encoding="UTF-8" standalone="no"?>
<!DOCTYPE svg PUBLIC "-//W3C//DTD SVG 1.1//EN"
 "http://www.w3.org/Graphics/SVG/1.1/DTD/svg11.dtd">
<!-- Generated by graphviz version 2.26.3 (20100126.1600)
 -->
<!-- Title: DAG Pages: 1 -->
<svg width="98pt" height="116pt"
 viewBox="0.00 0.00 98.00 116.00" xmlns="http://www.w3.org/2000/svg" xmlns:xlink="http://www.w3.org/1999/xlink">
<g id="graph1" class="graph" transform="scale(1 1) rotate(0) translate(4 112)">
<title>DAG</title>
<polygon fill="white" stroke="white" points="-4,5 -4,-112 95,-112 95,5 -4,5"/>
<!-- 1 -->
<g id="node1" class="node"><title>1</title>
<ellipse fill="none" stroke="black" cx="18" cy="-90" rx="18" ry="18"/>
<text text-anchor="middle" x="18" y="-86.4" font-family="Times Roman,serif" font-size="14.00">X₁</text>
</g>
<!-- 2 -->
<g id="node2" class="node"><title>2</title>
<ellipse fill="none" stroke="black" cx="18" cy="-18" rx="18" ry="18"/>
<text text-anchor="middle" x="18" y="-14.4" font-family="Times Roman,serif" font-size="14.00">X₂</text>
</g>
<!-- 1&#45;&gt;2 -->
<g id="edge4" class="edge"><title>1&#45;&gt;2</title>
<path fill="none" stroke="black" d="M18,-71.8314C18,-64.131 18,-54.9743 18,-46.4166"/>
<polygon fill="black" stroke="black" points="21.5001,-46.4132 18,-36.4133 14.5001,-46.4133 21.5001,-46.4132"/>
</g>
<!-- 3 -->
<g id="node3" class="node"><title>3</title>
<ellipse fill="none" stroke="black" cx="72" cy="-18" rx="18" ry="18"/>
<text text-anchor="middle" x="72" y="-14.4" font-family="Times Roman,serif" font-size="14.00">X₃</text>
</g>
<!-- 1&#45;&gt;3 -->
<g id="edge6" class="edge"><title>1&#45;&gt;3</title>
<path fill="none" stroke="black" d="M28.9277,-75.4297C36.3934,-65.4754 46.4368,-52.0842 54.9474,-40.7368"/>
<polygon fill="black" stroke="black" points="57.8885,-42.6486 61.0885,-32.5486 52.2885,-38.4486 57.8885,-42.6486"/>
</g>
<!-- 4 -->
<g id="node4" class="node"><title>4</title>
<ellipse fill="none" stroke="black" cx="72" cy="-90" rx="18" ry="18"/>
<text text-anchor="middle" x="72" y="-86.4" font-family="Times Roman,serif" font-size="14.00">X₄</text>
</g>
<!-- 1&#45;&gt;4 -->
<g id="edge10" class="edge"><title>1&#45;&gt;4</title>
<path fill="none" stroke="black" d="M36.1406,-90C38.6226,-90 41.1046,-90 43.5865,-90"/>
<polygon fill="black" stroke="black" points="43.7902,-93.5001 53.7902,-90 43.7901,-86.5001 43.7902,-93.5001"/>
</g>
<!-- 2&#45;&gt;3 -->
<g id="edge8" class="edge"><title>2&#45;&gt;3</title>
<path fill="none" stroke="black" d="M36.1406,-18C38.6226,-18 41.1046,-18 43.5865,-18"/>
<polygon fill="black" stroke="black" points="43.7902,-21.5001 53.7902,-18 43.7901,-14.5001 43.7902,-21.5001"/>
</g>
<!-- 3&#45;&gt;4 -->
<g id="edge12" class="edge"><title>3&#45;&gt;4</title>
<path fill="none" stroke="black" d="M72,-36.4133C72,-44.0593 72,-53.1084 72,-61.5726"/>
<polygon fill="black" stroke="black" points="68.5001,-61.8313 72,-71.8314 75.5001,-61.8314 68.5001,-61.8313"/>
</g>
</g>
</svg>
