<?xml version="1.0" encoding="UTF-8" standalone="no"?>
<!DOCTYPE svg PUBLIC "-//W3C//DTD SVG 1.1//EN"
 "http://www.w3.org/Graphics/SVG/1.1/DTD/svg11.dtd">
<!-- Generated by graphviz version 2.26.3 (20100126.1600)
 -->
<!-- Title: DAG Pages: 1 -->
<svg width="152pt" height="116pt"
 viewBox="0.00 0.00 152.00 116.00" xmlns="http://www.w3.org/2000/svg" xmlns:xlink="http://www.w3.org/1999/xlink">
<g id="graph1" class="graph" transform="scale(1 1) rotate(0) translate(4 112)">
<title>DAG</title>
<polygon fill="white" stroke="white" points="-4,5 -4,-112 149,-112 149,5 -4,5"/>
<!-- 1 -->
<g id="node1" class="node"><title>1</title>
<ellipse fill="none" stroke="black" cx="18" cy="-90" rx="18" ry="18"/>
<text text-anchor="middle" x="18" y="-86.4" font-family="Times Roman,serif" font-size="14.00">X₁</text>
</g>
<!-- 2 -->
<g id="node2" class="node"><title>2</title>
<ellipse fill="none" stroke="black" cx="72" cy="-90" rx="18" ry="18"/>
<text text-anchor="middle" x="72" y="-86.4" font-family="Times Roman,serif" font-size="14.00">X₂</text>
</g>
<!-- 1&#45;&gt;2 -->
<g id="edge4" class="edge"><title>1&#45;&gt;2</title>
<path fill="none" stroke="black" d="M36.1406,-90C38.6226,-90 41.1046,-90 43.5865,-90"/>
<polygon fill="black" stroke="black" points="43.7902,-93.5001 53.7902,-90 43.7901,-86.5001 43.7902,-93.5001"/>
</g>
<!-- 4 -->
<g id="node4" class="node"><title>4</title>
<polygon fill="none" stroke="black" points="90,-36 54,-36 54,-1.77636e-14 90,-3.55271e-15 90,-36"/>
<text text-anchor="middle" x="72" y="-14.4" font-family="Times Roman,serif" font-size="14.00">X₄</text>
</g>
<!-- 1&#45;&gt;4 -->
<g id="edge8" class="edge"><title>1&#45;&gt;4</title>
<path fill="none" stroke="black" d="M28.9277,-75.4297C35.6393,-66.4809 44.4342,-54.7543 52.3258,-44.2322"/>
<polygon fill="black" stroke="black" points="55.204,-46.228 58.404,-36.128 49.604,-42.028 55.204,-46.228"/>
</g>
<!-- 3 -->
<g id="node3" class="node"><title>3</title>
<ellipse fill="none" stroke="black" cx="126" cy="-90" rx="18" ry="18"/>
<text text-anchor="middle" x="126" y="-86.4" font-family="Times Roman,serif" font-size="14.00">X₃</text>
</g>
<!-- 2&#45;&gt;3 -->
<g id="edge6" class="edge"><title>2&#45;&gt;3</title>
<path fill="none" stroke="black" d="M90.1406,-90C92.6226,-90 95.1046,-90 97.5865,-90"/>
<polygon fill="black" stroke="black" points="97.7902,-93.5001 107.79,-90 97.7901,-86.5001 97.7902,-93.5001"/>
</g>
<!-- 3&#45;&gt;4 -->
<g id="edge10" class="edge"><title>3&#45;&gt;4</title>
<path fill="none" stroke="black" d="M115.072,-75.4297C108.361,-66.4809 99.5658,-54.7543 91.6742,-44.2322"/>
<polygon fill="black" stroke="black" points="94.396,-42.028 85.596,-36.128 88.796,-46.228 94.396,-42.028"/>
</g>
</g>
</svg>
