<?xml version="1.0" encoding="UTF-8" standalone="no"?>
<!DOCTYPE svg PUBLIC "-//W3C//DTD SVG 1.1//EN"
 "http://www.w3.org/Graphics/SVG/1.1/DTD/svg11.dtd">
<!-- Generated by graphviz version 2.26.3 (20100126.1600)
 -->
<!-- Title: DAG Pages: 1 -->
<svg width="260pt" height="116pt"
 viewBox="0.00 0.00 260.00 116.00" xmlns="http://www.w3.org/2000/svg" xmlns:xlink="http://www.w3.org/1999/xlink">
<g id="graph1" class="graph" transform="scale(1 1) rotate(0) translate(4 112)">
<title>DAG</title>
<polygon fill="white" stroke="white" points="-4,5 -4,-112 257,-112 257,5 -4,5"/>
<!-- 1 -->
<g id="node1" class="node"><title>1</title>
<ellipse fill="none" stroke="black" cx="18" cy="-90" rx="18" ry="18"/>
<text text-anchor="middle" x="18" y="-86.4" font-family="Times Roman,serif" font-size="14.00">X₁</text>
</g>
<!-- 2 -->
<g id="node2" class="node"><title>2</title>
<ellipse fill="none" stroke="black" cx="72" cy="-90" rx="18" ry="18"/>
<text text-anchor="middle" x="72" y="-86.4" font-family="Times Roman,serif" font-size="14.00">X₂</text>
</g>
<!-- 1&#45;&gt;2 -->
<g id="edge4" class="edge"><title>1&#45;&gt;2</title>
<path fill="none" stroke="black" d="M36.1406,-90C38.6226,-90 41.1046,-90 43.5865,-90"/>
<polygon fill="black" stroke="black" points="43.7902,-93.5001 53.7902,-90 43.7901,-86.5001 43.7902,-93.5001"/>
</g>
<!-- 6 -->
<g id="node6" class="node"><title>6</title>
<polygon fill="none" stroke="black" points="36,-36 1.42109e-14,-36 0,-1.77636e-14 36,-3.55271e-15 36,-36"/>
<text text-anchor="middle" x="18" y="-14.4" font-family="Times Roman,serif" font-size="14.00">Y₁</text>
</g>
<!-- 1&#45;&gt;6 -->
<g id="edge12" class="edge"><title>1&#45;&gt;6</title>
<path fill="none" stroke="black" d="M18,-71.8314C18,-64.131 18,-54.9743 18,-46.4166"/>
<polygon fill="black" stroke="black" points="21.5001,-46.4132 18,-36.4133 14.5001,-46.4133 21.5001,-46.4132"/>
</g>
<!-- 3 -->
<g id="node3" class="node"><title>3</title>
<ellipse fill="none" stroke="black" cx="126" cy="-90" rx="18" ry="18"/>
<text text-anchor="middle" x="126" y="-86.4" font-family="Times Roman,serif" font-size="14.00">X₃</text>
</g>
<!-- 2&#45;&gt;3 -->
<g id="edge6" class="edge"><title>2&#45;&gt;3</title>
<path fill="none" stroke="black" d="M90.1406,-90C92.6226,-90 95.1046,-90 97.5865,-90"/>
<polygon fill="black" stroke="black" points="97.7902,-93.5001 107.79,-90 97.7901,-86.5001 97.7902,-93.5001"/>
</g>
<!-- 7 -->
<g id="node7" class="node"><title>7</title>
<polygon fill="none" stroke="black" points="90,-36 54,-36 54,-1.77636e-14 90,-3.55271e-15 90,-36"/>
<text text-anchor="middle" x="72" y="-14.4" font-family="Times Roman,serif" font-size="14.00">Y₂</text>
</g>
<!-- 2&#45;&gt;7 -->
<g id="edge14" class="edge"><title>2&#45;&gt;7</title>
<path fill="none" stroke="black" d="M72,-71.8314C72,-64.131 72,-54.9743 72,-46.4166"/>
<polygon fill="black" stroke="black" points="75.5001,-46.4132 72,-36.4133 68.5001,-46.4133 75.5001,-46.4132"/>
</g>
<!-- 4 -->
<g id="node4" class="node"><title>4</title>
<ellipse fill="none" stroke="black" cx="180" cy="-90" rx="18" ry="18"/>
<text text-anchor="middle" x="180" y="-86.4" font-family="Times Roman,serif" font-size="14.00">X₄</text>
</g>
<!-- 3&#45;&gt;4 -->
<g id="edge8" class="edge"><title>3&#45;&gt;4</title>
<path fill="none" stroke="black" d="M144.141,-90C146.623,-90 149.105,-90 151.587,-90"/>
<polygon fill="black" stroke="black" points="151.79,-93.5001 161.79,-90 151.79,-86.5001 151.79,-93.5001"/>
</g>
<!-- 8 -->
<g id="node8" class="node"><title>8</title>
<polygon fill="none" stroke="black" points="144,-36 108,-36 108,-1.77636e-14 144,-3.55271e-15 144,-36"/>
<text text-anchor="middle" x="126" y="-14.4" font-family="Times Roman,serif" font-size="14.00">Y₃</text>
</g>
<!-- 3&#45;&gt;8 -->
<g id="edge16" class="edge"><title>3&#45;&gt;8</title>
<path fill="none" stroke="black" d="M126,-71.8314C126,-64.131 126,-54.9743 126,-46.4166"/>
<polygon fill="black" stroke="black" points="129.5,-46.4132 126,-36.4133 122.5,-46.4133 129.5,-46.4132"/>
</g>
<!-- 5 -->
<g id="node5" class="node"><title>5</title>
<ellipse fill="none" stroke="black" cx="234" cy="-90" rx="18" ry="18"/>
<text text-anchor="middle" x="234" y="-86.4" font-family="Times Roman,serif" font-size="14.00">X₅</text>
</g>
<!-- 4&#45;&gt;5 -->
<g id="edge10" class="edge"><title>4&#45;&gt;5</title>
<path fill="none" stroke="black" d="M198.141,-90C200.623,-90 203.105,-90 205.587,-90"/>
<polygon fill="black" stroke="black" points="205.79,-93.5001 215.79,-90 205.79,-86.5001 205.79,-93.5001"/>
</g>
<!-- 9 -->
<g id="node9" class="node"><title>9</title>
<polygon fill="none" stroke="black" points="198,-36 162,-36 162,-1.77636e-14 198,-3.55271e-15 198,-36"/>
<text text-anchor="middle" x="180" y="-14.4" font-family="Times Roman,serif" font-size="14.00">Y₄</text>
</g>
<!-- 4&#45;&gt;9 -->
<g id="edge18" class="edge"><title>4&#45;&gt;9</title>
<path fill="none" stroke="black" d="M180,-71.8314C180,-64.131 180,-54.9743 180,-46.4166"/>
<polygon fill="black" stroke="black" points="183.5,-46.4132 180,-36.4133 176.5,-46.4133 183.5,-46.4132"/>
</g>
<!-- 10 -->
<g id="node10" class="node"><title>10</title>
<polygon fill="none" stroke="black" points="252,-36 216,-36 216,-1.77636e-14 252,-3.55271e-15 252,-36"/>
<text text-anchor="middle" x="234" y="-14.4" font-family="Times Roman,serif" font-size="14.00">Y₅</text>
</g>
<!-- 5&#45;&gt;10 -->
<g id="edge20" class="edge"><title>5&#45;&gt;10</title>
<path fill="none" stroke="black" d="M234,-71.8314C234,-64.131 234,-54.9743 234,-46.4166"/>
<polygon fill="black" stroke="black" points="237.5,-46.4132 234,-36.4133 230.5,-46.4133 237.5,-46.4132"/>
</g>
</g>
</svg>
